<svg width="121" height="120" viewBox="0 0 121 120" fill="none" xmlns="http://www.w3.org/2000/svg">
<g clip-path="url(#clip0_146_1731)">
<path d="M48.2363 84.1711C47.783 84.1711 47.3264 84.0152 46.9539 83.6979L34.134 72.7818C33.6918 72.4048 33.4375 71.8543 33.4375 71.2727C33.4375 70.6923 33.6929 70.1418 34.134 69.7648L46.9539 58.8487C47.7863 58.1389 49.0367 58.2395 49.7465 59.072C50.4551 59.9056 50.3556 61.1559 49.522 61.8646L38.4744 71.2727L49.522 80.6809C50.3556 81.3907 50.4551 82.641 49.7465 83.4735C49.354 83.9345 48.7968 84.1711 48.2363 84.1711Z" fill="#8A8AA7"/>
<path d="M73.5446 84.1712C72.9841 84.1712 72.4269 83.9346 72.0355 83.4736C71.3258 82.6412 71.4264 81.3908 72.2589 80.681L83.3066 71.2729L72.2589 61.8647C71.4264 61.156 71.3258 59.9057 72.0355 59.0721C72.7442 58.2396 73.9957 58.139 74.827 58.8488L87.6469 69.7649C88.0891 70.1419 88.3434 70.6925 88.3434 71.2729C88.3434 71.8544 88.0891 72.4049 87.6469 72.7819L74.827 83.6981C74.4545 84.0154 73.9979 84.1712 73.5446 84.1712Z" fill="#8A8AA7"/>
<path d="M56.3534 92.3586C56.2174 92.3586 56.0803 92.3442 55.9421 92.3155C54.872 92.09 54.1865 91.0386 54.4121 89.9684L62.4018 52.0339C62.6274 50.9638 63.6776 50.2783 64.7489 50.5039C65.8191 50.7294 66.5045 51.7797 66.279 52.8509L58.2892 90.7854C58.0924 91.7185 57.2699 92.3586 56.3534 92.3586Z" fill="#8A8AA7"/>
<path d="M107.589 113.026H14.1925C6.85834 113.026 0.890625 107.059 0.890625 99.7238V20.4542C0.890625 13.1201 6.85834 7.15234 14.1925 7.15234H107.589C114.923 7.15234 120.891 13.1201 120.891 20.4542V99.7238C120.891 107.059 114.923 113.026 107.589 113.026ZM14.1925 11.1146C9.04289 11.1146 4.85289 15.3046 4.85289 20.4542V99.7238C4.85289 104.873 9.04289 109.063 14.1925 109.063H107.589C112.738 109.063 116.928 104.873 116.928 99.7238V20.4542C116.928 15.3046 112.738 11.1146 107.589 11.1146H14.1925Z" fill="#8A8AA7"/>
<path d="M118.909 38.8758H2.87176C1.77727 38.8758 0.890625 37.9892 0.890625 36.8947C0.890625 35.8013 1.77727 34.9136 2.87176 34.9136H118.909C120.004 34.9136 120.891 35.8013 120.891 36.8947C120.891 37.9892 120.004 38.8758 118.909 38.8758Z" fill="#8A8AA7"/>
<path d="M34.7402 29.3959C31.2843 29.3959 28.4707 26.5823 28.4707 23.1263C28.4707 19.6693 31.2843 16.8568 34.7402 16.8568C38.1973 16.8568 41.0098 19.6693 41.0098 23.1263C41.0098 26.5823 38.1973 29.3959 34.7402 29.3959ZM34.7402 20.8191C33.4689 20.8191 32.433 21.8539 32.433 23.1263C32.433 24.3988 33.4689 25.4336 34.7402 25.4336C36.0127 25.4336 37.0475 24.3988 37.0475 23.1263C37.0475 21.8539 36.0127 20.8191 34.7402 20.8191Z" fill="#8A8AA7"/>
<path d="M15.4766 29.335C12.0195 29.335 9.20703 26.5225 9.20703 23.0654C9.20703 19.6084 12.0195 16.7959 15.4766 16.7959C18.9336 16.7959 21.7461 19.6084 21.7461 23.0654C21.7461 26.5225 18.9336 29.335 15.4766 29.335ZM15.4766 20.7582C14.2052 20.7582 13.1693 21.7941 13.1693 23.0654C13.1693 24.3379 14.2052 25.3727 15.4766 25.3727C16.749 25.3727 17.7838 24.3379 17.7838 23.0654C17.7838 21.7941 16.749 20.7582 15.4766 20.7582Z" fill="#8A8AA7"/>
<path d="M54.0028 29.4556C50.5469 29.4556 47.7344 26.6431 47.7344 23.186C47.7344 19.7301 50.5469 16.9176 54.0028 16.9176C57.4598 16.9176 60.2723 19.7301 60.2723 23.186C60.2723 26.6431 57.4598 29.4556 54.0028 29.4556ZM54.0028 20.8788C52.7314 20.8788 51.6966 21.9135 51.6966 23.186C51.6966 24.4585 52.7314 25.4933 54.0028 25.4933C55.2753 25.4933 56.3101 24.4585 56.3101 23.186C56.3101 21.9135 55.2753 20.8788 54.0028 20.8788Z" fill="#8A8AA7"/>
</g>
<defs>
<clipPath id="clip0_146_1731">
<rect width="120" height="120" fill="white" transform="translate(0.890625)"/>
</clipPath>
</defs>
</svg>
