<svg width="20" height="21" viewBox="0 0 20 21" fill="none" xmlns="http://www.w3.org/2000/svg">
<path fill-rule="evenodd" clip-rule="evenodd" d="M10 20.4956C4.47715 20.4956 0 16.0185 0 10.4956C0 4.97276 4.47715 0.495605 10 0.495605C15.5228 0.495605 20 4.97276 20 10.4956C20 16.0185 15.5228 20.4956 10 20.4956ZM10 2.49561C5.58172 2.49561 2 6.07733 2 10.4956C2 14.9139 5.58172 18.4956 10 18.4956C14.4183 18.4956 18 14.9139 18 10.4956C18 6.07733 14.4183 2.49561 10 2.49561ZM10 9.24561C10.6904 9.24561 11.25 9.80525 11.25 10.4956V14.4956C11.25 15.186 10.6904 15.7456 10 15.7456C9.30964 15.7456 8.75 15.186 8.75 14.4956V10.4956C8.75 9.80525 9.30964 9.24561 10 9.24561ZM10 5.49561C9.30964 5.49561 8.75 6.05525 8.75 6.74561C8.75 7.43596 9.30964 7.99561 10 7.99561C10.6904 7.99561 11.25 7.43596 11.25 6.74561C11.25 6.05525 10.6904 5.49561 10 5.49561Z" fill="#212121"/>
</svg>
