<svg width="20" height="21" viewBox="0 0 20 21" fill="none" xmlns="http://www.w3.org/2000/svg">
<path fill-rule="evenodd" clip-rule="evenodd" d="M8.43565 1.02377C9.39599 0.4369 10.604 0.4369 11.5644 1.02377L18.5644 5.30155C19.4561 5.84652 20 6.8163 20 7.8614V17.7397C20 19.3966 18.6569 20.7397 17 20.7397H3C1.34315 20.7397 0 19.3966 0 17.7397V7.8614C0 6.8163 0.543884 5.84652 1.43565 5.30155L8.43565 1.02377ZM10.5215 2.73034C10.2013 2.53471 9.79866 2.53471 9.47855 2.73034L3.00689 6.68524L9.36429 11.9207C9.73355 12.2248 10.2665 12.2248 10.6357 11.9207L16.9931 6.68524L10.5215 2.73034ZM18 8.44695L14.2279 11.5534L18 15.3255V8.44695ZM12.6768 12.8307L11.9071 13.4646C10.7994 14.3769 9.20065 14.3769 8.09288 13.4646L7.32319 12.8307L2.0633 18.0906C2.20542 18.4698 2.57119 18.7397 3 18.7397H17C17.4288 18.7397 17.7946 18.4698 17.9367 18.0906L12.6768 12.8307ZM5.77212 11.5534L2 8.44695V15.3255L5.77212 11.5534Z" fill="#212121"/>
</svg>
