<svg width="20" height="20" viewBox="0 0 20 20" fill="none" xmlns="http://www.w3.org/2000/svg">
<path fill-rule="evenodd" clip-rule="evenodd" d="M13.6099 0.579981C14.3949 -0.205046 15.6677 -0.205046 16.4527 0.579981L19.4112 3.5385C20.1963 4.32353 20.1963 5.59631 19.4112 6.38134L7.14172 18.6508C6.86229 18.9303 6.5067 19.1211 6.1194 19.1996L2.40932 19.9512C1.74887 20.085 1.0653 19.8789 0.588804 19.4024C0.112303 18.9259 -0.0937397 18.2423 0.0400497 17.5819L0.79161 13.8718C0.870067 13.4845 1.06094 13.1289 1.34036 12.8495L13.6099 0.579981ZM2.44348 15.8422L2.57274 15.2041L4.78709 17.4185L4.14901 17.5477L2.01022 17.981L2.44348 15.8422ZM6.58059 16.3691L3.62208 13.4106L12.2516 4.7811L15.2101 7.73961L6.58059 16.3691ZM16.6315 6.3182L17.9898 4.95992L16.5684 3.5385L16.4527 3.42282L15.0313 2.0014L13.673 3.35968L16.6315 6.3182Z" fill="#212121"/>
</svg>
