<svg width="20" height="21" viewBox="0 0 20 21" fill="none" xmlns="http://www.w3.org/2000/svg">
<path fill-rule="evenodd" clip-rule="evenodd" d="M4.30377 2.37195C4.30379 2.37193 4.30404 2.37219 4.30444 2.3728ZM4.34683 2.44023L6.3541 5.63406C6.11154 5.86402 5.84697 6.09179 5.56223 6.33693C5.3175 6.54762 5.05788 6.77113 4.78454 7.01988C4.10705 7.6364 3.97619 8.62797 4.41466 9.39963C6.73326 13.4802 9.89567 15.337 11.3107 16.0036C12.1632 16.4053 13.0894 16.0883 13.605 15.432L14.994 13.6639C14.9949 13.6628 14.9948 13.6631 14.9943 13.6634C14.9942 13.6635 14.9952 13.6629 14.9973 13.6626C14.9994 13.6622 15.0015 13.6622 15.0032 13.6626C15.0045 13.6628 15.0062 13.6633 15.0091 13.665C15.8185 14.1646 16.9477 14.8435 17.985 15.4182C17.7987 16.5429 17.3708 17.198 16.8989 17.5986C16.4035 18.0192 15.7628 18.2405 15.0482 18.3204C13.6213 18.48 12.1728 18.0472 11.8516 17.9417C11.4971 17.7604 9.55356 16.7374 7.47717 15.0796C5.33609 13.3701 3.18918 11.0919 2.36809 8.47894C1.768 6.56932 1.99428 5.22553 2.46593 4.29861C2.92188 3.40255 3.65972 2.79436 4.34683 2.44023ZM3.62071 0.549988C4.56664 0.101335 5.54477 0.569118 6.00037 1.29405L8.10026 4.63525C8.52478 5.31073 8.55389 6.29817 7.86374 6.9746C7.56796 7.2645 7.15645 7.62081 6.77351 7.95238C6.56331 8.13439 6.36173 8.30893 6.19262 8.46095C8.18813 11.9357 10.856 13.5433 12.0694 14.1312L13.4201 12.4118C14.0579 11.6 15.1934 11.4103 16.0581 11.944C16.858 12.4377 17.9638 13.1021 18.966 13.657C19.6343 14.027 20.1124 14.7984 19.977 15.6694C19.7337 17.2336 19.0982 18.373 18.1926 19.1418C17.3022 19.8977 16.2415 20.2184 15.2698 20.3271C13.3585 20.5408 11.5305 19.9621 11.1967 19.8503C11.1122 19.822 11.042 19.7921 10.9666 19.7538C10.6083 19.5718 8.4963 18.4705 6.23016 16.6612C3.98759 14.8707 1.45851 12.2807 0.455138 9.08767C-0.28189 6.74225 -0.0638629 4.84053 0.680113 3.37842C1.41105 1.94193 2.59475 1.0366 3.62071 0.549988Z" fill="#212121"/>
</svg>
