<svg width="120" height="120" viewBox="0 0 120 120" fill="none" xmlns="http://www.w3.org/2000/svg">
<g clip-path="url(#clip0_238_2308)">
<path d="M113.999 0.00109863H79.9996C78.8996 0.00109863 77.9996 0.901083 77.9996 2.00107C77.9996 3.10105 78.8996 4.00103 79.9996 4.00103H113.999C115.099 4.00103 115.999 4.90102 115.999 6.001V8.00096H85.9995C84.8995 8.00096 83.9995 8.90095 83.9995 10.0009C83.9995 11.1009 84.8995 12.0009 85.9995 12.0009H115.999V26.0007H89.9995C88.8995 26.0007 87.9995 26.9006 87.9995 28.0006C87.9995 29.1006 88.8995 30.0006 89.9995 30.0006H115.999V32.0006C115.999 33.1005 115.099 34.0005 113.999 34.0005H87.9995C86.8995 34.0005 85.9995 34.9005 85.9995 36.0005C85.9995 37.1005 86.8995 38.0005 87.9995 38.0005H112.549L115.224 46.0003H113.999H69.5748C78.0496 42.3004 83.9995 33.8255 83.9995 24.0007C83.9995 10.7759 73.2247 0.00109863 59.9999 0.00109863C46.7752 0.00109863 36.0003 10.7759 36.0003 24.0007C36.0003 33.8255 41.9502 42.3004 50.4251 46.0003H6.00085H4.77587L7.45082 38.0005H34.0004C35.1004 38.0005 36.0003 37.1005 36.0003 36.0005C36.0003 34.9005 35.1004 34.0005 34.0004 34.0005H6.00085C4.90086 34.0005 4.00088 33.1005 4.00088 32.0006V30.0006H30.0004C31.1004 30.0006 32.0004 29.1006 32.0004 28.0006C32.0004 26.9006 31.1004 26.0007 30.0004 26.0007H4.00088V12.0009H34.0004C35.1004 12.0009 36.0003 11.1009 36.0003 10.0009C36.0003 8.90095 35.1004 8.00096 34.0004 8.00096H4.00088V6.001C4.00088 4.90102 4.90086 4.00103 6.00085 4.00103H42.0002C43.1002 4.00103 44.0002 3.10105 44.0002 2.00107C44.0002 0.901083 43.1002 0.00109863 42.0002 0.00109863H6.00085C2.7009 0.00109863 0.000945756 2.70105 0.000945756 6.001V10.0009V28.0006V32.0006C0.000945756 34.3755 1.40092 36.4255 3.42589 37.4005L0.100944 47.3753C-0.0990526 47.9753 0.000945731 48.6503 0.375939 49.1753C0.750933 49.7003 1.35092 50.0003 2.00091 50.0003H4.00088V108.374C1.67592 109.199 0.000945756 111.399 0.000945756 113.999V117.999C0.000945756 119.099 0.900931 119.999 2.00091 119.999H117.999C119.099 119.999 119.999 119.099 119.999 117.999V113.999C119.999 111.399 118.324 109.199 115.999 108.374V50.0003H117.999C118.649 50.0003 119.249 49.7003 119.624 49.1753C119.999 48.6503 120.099 47.9753 119.899 47.3753L116.574 37.4005C118.599 36.4255 119.999 34.3755 119.999 32.0006V28.0006V10.0009V6.001C119.999 2.70105 117.299 0.00109863 113.999 0.00109863ZM40.0003 24.0007C40.0003 12.9759 48.9751 4.00103 59.9999 4.00103C71.0248 4.00103 79.9996 12.9759 79.9996 24.0007C79.9996 35.0255 71.0248 44.0004 59.9999 44.0004C48.9751 44.0004 40.0003 35.0255 40.0003 24.0007ZM8.00081 50.0003H111.999V107.999H71.9997V93.9995V85.9997V56.0002C71.9997 54.9002 71.0998 54.0002 69.9998 54.0002H50.0001C48.9001 54.0002 48.0001 54.9002 48.0001 56.0002V85.9997V93.9995V107.999H8.00081V50.0003ZM52.0001 91.9996V87.9996H67.9998V91.9996H52.0001ZM67.9998 95.9995V107.999H52.0001V95.9995H67.9998ZM52.0001 83.9997V58.0001H67.9998V83.9997H52.0001ZM115.999 115.999H4.00088V113.999C4.00088 112.899 4.90086 111.999 6.00085 111.999H50.0001H69.9998H113.999C115.099 111.999 115.999 112.899 115.999 113.999V115.999Z" fill="#9A92B9"/>
<path d="M41.9995 54.0001H14C12.9 54.0001 12 54.9001 12 56.0001V91.9995V99.9994C12 101.099 12.9 101.999 14 101.999H41.9995C43.0995 101.999 43.9995 101.099 43.9995 99.9994V91.9995V56.0001C43.9995 54.9001 43.0995 54.0001 41.9995 54.0001ZM39.9995 97.9994H15.9999V93.9995H39.9995V97.9994ZM39.9995 89.9995H15.9999V58.0001H25.9998V66.2749C22.5498 67.1749 19.9999 70.2749 19.9999 73.9998C19.9999 75.0998 20.8999 75.9998 21.9998 75.9998H33.9996C35.0996 75.9998 35.9996 75.0998 35.9996 73.9998C35.9996 70.2749 33.4496 67.1749 29.9997 66.2749V58.0001H39.9995V89.9995ZM27.9997 69.9999C29.4747 69.9999 30.7747 70.7998 31.4497 71.9998H24.5248C25.2248 70.7998 26.5248 69.9999 27.9997 69.9999Z" fill="#9A92B9"/>
<path d="M106 54.0001H78C76.9 54.0001 76 54.9001 76 56.0001V91.9995V99.9994C76 101.099 76.9 101.999 78 101.999H106C107.099 101.999 107.999 101.099 107.999 99.9994V91.9995V56.0001C107.999 54.9001 107.099 54.0001 106 54.0001ZM104 97.9994H79.9999V93.9995H104V97.9994ZM104 89.9995H79.9999V58.0001H89.9998V66.2749C86.5498 67.1749 83.9999 70.2749 83.9999 73.9998C83.9999 75.0998 84.8999 75.9998 85.9998 75.9998H97.9996C99.0996 75.9998 99.9996 75.0998 99.9996 73.9998C99.9996 70.2749 97.4496 67.1749 93.9997 66.2749V58.0001H104V89.9995ZM91.9997 69.9999C93.4747 69.9999 94.7747 70.7998 95.4497 71.9998H88.5248C89.2248 70.7998 90.5248 69.9999 91.9997 69.9999Z" fill="#9A92B9"/>
<path d="M69.8496 16.2007C68.9996 11.5508 64.8997 8.00085 59.9997 8.00085C55.0998 8.00085 50.9999 11.5508 50.1499 16.2007C46.625 17.0257 44 20.2007 44 24.0006C44 27.7255 46.55 30.8505 49.9999 31.7505V38.0004C49.9999 39.1003 50.8999 40.0003 51.9999 40.0003H67.9996C69.0996 40.0003 69.9996 39.1003 69.9996 38.0004V31.7505C73.4495 30.8505 75.9995 27.7255 75.9995 24.0006C75.9995 20.2256 73.3745 17.0507 69.8496 16.2007ZM67.9996 28.0005C66.8996 28.0005 65.9996 28.9005 65.9996 30.0005V36.0004H53.9998V30.0005C53.9998 28.9005 53.0998 28.0005 51.9999 28.0005C49.7999 28.0005 47.9999 26.2006 47.9999 24.0006C47.9999 21.9256 49.5749 20.2507 51.5999 20.0507C54.1748 21.3756 54.0998 23.2756 54.0498 23.6756C53.8498 24.7506 54.5748 25.7756 55.6498 25.9756C55.7748 26.0006 55.8998 26.0006 56.0248 26.0006C56.9748 26.0006 57.7998 25.3256 57.9748 24.3756C58.2998 22.6756 57.7998 19.1507 54.1248 16.8757C54.6498 14.1008 57.0748 12.0008 59.9997 12.0008C63.2997 12.0008 65.9996 14.7007 65.9996 18.0007C65.9996 19.1007 66.8996 20.0007 67.9996 20.0007C70.1996 20.0007 71.9995 21.8006 71.9995 24.0006C71.9995 26.2006 70.1996 28.0005 67.9996 28.0005Z" fill="#9A92B9"/>
</g>
<defs>
<clipPath id="clip0_238_2308">
<rect width="120" height="120" fill="white"/>
</clipPath>
</defs>
</svg>
