<svg width="16" height="21" viewBox="0 0 16 21" fill="none" xmlns="http://www.w3.org/2000/svg">
<path fill-rule="evenodd" clip-rule="evenodd" d="M8 14.5C7.21788 14.5 6.59078 14.5528 6.05574 14.6311C3.85024 14.9541 2 17.1979 2 19.5C2 20.0523 1.55228 20.5 1 20.5C0.447715 20.5 0 20.0523 0 19.5C0 16.9069 1.62494 14.3599 3.9591 13.2166C2.1687 11.9487 1 9.86082 1 7.5C1 3.63401 4.13401 0.5 8 0.5C11.866 0.5 15 3.63401 15 7.5C15 9.86081 13.8313 11.9487 12.0409 13.2166C14.3751 14.3599 16 16.9069 16 19.5C16 20.0523 15.5523 20.5 15 20.5C14.4477 20.5 14 20.0523 14 19.5C14 17.1979 12.1498 14.9541 9.94426 14.6311C9.40922 14.5528 8.78212 14.5 8 14.5ZM8 12.5C5.23858 12.5 3 10.2614 3 7.5C3 4.73858 5.23858 2.5 8 2.5C10.7614 2.5 13 4.73858 13 7.5C13 10.2614 10.7614 12.5 8 12.5Z" fill="#212121"/>
</svg>
