<svg width="121" height="120" viewBox="0 0 121 120" fill="none" xmlns="http://www.w3.org/2000/svg">
<path d="M50.8906 35.0005L15.8906 35.0005M105.891 35.0005L70.8906 35.0005M70.8906 36.2603C88.1429 40.7007 100.891 56.3617 100.891 75.0001M20.8906 75.0001C20.8906 56.3617 33.6384 40.7007 50.8906 36.2603M18.8906 95.0005H22.8906C25.6909 95.0005 27.091 95.0005 28.1606 94.4555C29.1014 93.9762 29.8663 93.2113 30.3457 92.2704C30.8906 91.2009 30.8906 89.8007 30.8906 87.0005V83.0005C30.8906 80.2002 30.8906 78.8001 30.3457 77.7305C29.8663 76.7897 29.1014 76.0248 28.1606 75.5455C27.091 75.0005 25.6909 75.0005 22.8906 75.0005H18.8906C16.0904 75.0005 14.6902 75.0005 13.6207 75.5455C12.6799 76.0248 11.915 76.7897 11.4356 77.7305C10.8906 78.8001 10.8906 80.2002 10.8906 83.0005V87.0005C10.8906 89.8007 10.8906 91.2009 11.4356 92.2704C11.915 93.2113 12.6799 93.9762 13.6207 94.4555C14.6902 95.0005 16.0904 95.0005 18.8906 95.0005ZM58.8906 45.0005H62.8906C65.6909 45.0005 67.091 45.0005 68.1606 44.4555C69.1014 43.9762 69.8663 43.2113 70.3457 42.2704C70.8906 41.2009 70.8906 39.8008 70.8906 37.0005V33.0005C70.8906 30.2002 70.8906 28.8001 70.3457 27.7305C69.8663 26.7897 69.1014 26.0248 68.1606 25.5455C67.091 25.0005 65.6909 25.0005 62.8906 25.0005H58.8906C56.0904 25.0005 54.6902 25.0005 53.6207 25.5455C52.6799 26.0248 51.915 26.7897 51.4356 27.7305C50.8906 28.8001 50.8906 30.2002 50.8906 33.0005V37.0005C50.8906 39.8008 50.8906 41.2009 51.4356 42.2704C51.915 43.2113 52.6799 43.9762 53.6207 44.4555C54.6902 45.0005 56.0904 45.0005 58.8906 45.0005ZM98.8906 95.0005H102.891C105.691 95.0005 107.091 95.0005 108.161 94.4555C109.101 93.9762 109.866 93.2113 110.346 92.2704C110.891 91.2009 110.891 89.8007 110.891 87.0005V83.0005C110.891 80.2002 110.891 78.8001 110.346 77.7305C109.866 76.7897 109.101 76.0248 108.161 75.5455C107.091 75.0005 105.691 75.0005 102.891 75.0005H98.8906C96.0904 75.0005 94.6902 75.0005 93.6207 75.5455C92.6799 76.0248 91.915 76.7897 91.4356 77.7305C90.8906 78.8001 90.8906 80.2002 90.8906 83.0005V87.0005C90.8906 89.8007 90.8906 91.2009 91.4356 92.2704C91.915 93.2113 92.6799 93.9762 93.6207 94.4555C94.6902 95.0005 96.0904 95.0005 98.8906 95.0005ZM110.891 35.0005C110.891 37.7619 108.652 40.0005 105.891 40.0005C103.129 40.0005 100.891 37.7619 100.891 35.0005C100.891 32.2391 103.129 30.0005 105.891 30.0005C108.652 30.0005 110.891 32.2391 110.891 35.0005ZM20.8906 35.0005C20.8906 37.7619 18.652 40.0005 15.8906 40.0005C13.1292 40.0005 10.8906 37.7619 10.8906 35.0005C10.8906 32.2391 13.1292 30.0005 15.8906 30.0005C18.652 30.0005 20.8906 32.2391 20.8906 35.0005Z" stroke="#8A8AA7" stroke-width="3.5" stroke-linecap="round" stroke-linejoin="round"/>
<g clip-path="url(#clip0_146_1745)">
<path d="M67.6201 81.8165L73.9646 71.9935C74.3191 71.4448 74.4963 71.1704 74.5663 70.8748C74.6281 70.6134 74.6296 70.3414 74.5704 70.0795C74.5035 69.7831 74.3291 69.5069 73.9804 68.9546L60.8926 48.2211M60.8926 48.2211L48.4125 69.326C48.08 69.8883 47.9138 70.1694 47.8555 70.4676C47.804 70.7311 47.8133 71.003 47.8827 71.2624C47.9613 71.5559 48.1464 71.825 48.5166 72.3632L55.1438 81.9978M60.8926 48.2211L61.1676 67.1501M55.5803 89.4788L67.4011 89.3071C68.3892 89.2927 68.8833 89.2855 69.2579 89.0877C69.5875 88.9137 69.8535 88.6399 70.0178 88.3054C70.2046 87.9252 70.1975 87.4311 70.1831 86.443L70.1564 84.6033C70.142 83.6152 70.1349 83.1211 69.9371 82.7464C69.7631 82.4169 69.4892 82.1509 69.1548 81.9866C68.7746 81.7997 68.2805 81.8069 67.2923 81.8213L55.4716 81.993C54.4834 82.0073 53.9893 82.0145 53.6147 82.2123C53.2852 82.3863 53.0192 82.6601 52.8548 82.9946C52.668 83.3748 52.6752 83.8689 52.6895 84.8571L52.7163 86.6967C52.7306 87.6849 52.7378 88.179 52.9356 88.5536C53.1096 88.8831 53.3834 89.1491 53.7179 89.3135C54.0981 89.5003 54.5922 89.4931 55.5803 89.4788ZM63.7503 73.1375C62.3923 74.5356 60.1579 74.568 58.7598 73.21C57.3617 71.8519 57.3292 69.6175 58.6873 68.2194C60.0454 66.8213 62.2797 66.7889 63.6778 68.1469C65.076 69.505 65.1084 71.7393 63.7503 73.1375Z" stroke="#8A8AA7" stroke-width="3.5" stroke-linecap="round" stroke-linejoin="round"/>
</g>
<defs>
<clipPath id="clip0_146_1745">
<rect width="42.3505" height="42.3505" fill="white" transform="translate(59.5078 43.2786) rotate(41.6119)"/>
</clipPath>
</defs>
</svg>
