<svg width="120" height="120" viewBox="0 0 120 120" fill="none" xmlns="http://www.w3.org/2000/svg">
<path d="M20.625 43.125V52.5H24.375V45H58.125V52.5H61.875V45H95.625V52.5H99.375V43.125C99.3751 42.8788 99.3266 42.6349 99.2324 42.4074C99.1382 42.1799 99.0001 41.9732 98.826 41.799C98.6518 41.6249 98.4451 41.4868 98.2176 41.3926C97.9901 41.2984 97.7462 41.2499 97.5 41.25H61.875V35.625H58.125V41.25H22.5C22.2538 41.2499 22.0099 41.2984 21.7824 41.3926C21.5549 41.4868 21.3482 41.6249 21.174 41.799C20.9999 41.9732 20.8618 42.1799 20.7676 42.4074C20.6734 42.6349 20.6249 42.8788 20.625 43.125Z" fill="#9793A4"/>
<path d="M60 76.875C65.1777 76.875 69.375 72.6777 69.375 67.5C69.375 62.3223 65.1777 58.125 60 58.125C54.8223 58.125 50.625 62.3223 50.625 67.5C50.625 72.6777 54.8223 76.875 60 76.875Z" fill="#9793A4"/>
<path d="M97.5 76.875C102.678 76.875 106.875 72.6777 106.875 67.5C106.875 62.3223 102.678 58.125 97.5 58.125C92.3223 58.125 88.125 62.3223 88.125 67.5C88.125 72.6777 92.3223 76.875 97.5 76.875Z" fill="#9793A4"/>
<path d="M22.5 76.875C27.6777 76.875 31.875 72.6777 31.875 67.5C31.875 62.3223 27.6777 58.125 22.5 58.125C17.3223 58.125 13.125 62.3223 13.125 67.5C13.125 72.6777 17.3223 76.875 22.5 76.875Z" fill="#9793A4"/>
<path d="M18.75 101.25H3.75V116.25H18.75V101.25Z" fill="#9793A4"/>
<path d="M41.25 101.25H26.25V116.25H41.25V101.25Z" fill="#9793A4"/>
<path d="M93.75 101.25H78.75V116.25H93.75V101.25Z" fill="#9793A4"/>
<path d="M116.25 101.25H101.25V116.25H116.25V101.25Z" fill="#9793A4"/>
<path d="M67.5 101.25H52.5V116.25H67.5V101.25Z" fill="#9793A4"/>
<path d="M61.875 82.5H58.125V97.5H61.875V82.5Z" fill="#9793A4"/>
<path d="M13.125 93.75H31.875V97.5H35.625V91.875C35.6251 91.6288 35.5766 91.3849 35.4824 91.1574C35.3882 90.9299 35.2501 90.7232 35.076 90.549C34.9018 90.3749 34.6951 90.2368 34.4676 90.1426C34.2401 90.0484 33.9962 89.9999 33.75 90H24.375V82.5H20.625V90H11.25C11.0038 89.9999 10.7599 90.0484 10.5324 90.1426C10.3049 90.2368 10.0982 90.3749 9.92403 90.549C9.74991 90.7232 9.6118 90.9299 9.5176 91.1574C9.42339 91.3849 9.37494 91.6288 9.375 91.875V97.5H13.125V93.75Z" fill="#9793A4"/>
<path d="M110.625 97.5V91.875C110.625 91.6288 110.577 91.3849 110.482 91.1574C110.388 90.9299 110.25 90.7232 110.076 90.549C109.902 90.3749 109.695 90.2368 109.468 90.1426C109.24 90.0484 108.996 89.9999 108.75 90H99.375V82.5H95.625V90H86.25C86.0038 89.9999 85.7599 90.0484 85.5324 90.1426C85.3049 90.2368 85.0982 90.3749 84.924 90.549C84.7499 90.7232 84.6118 90.9299 84.5176 91.1574C84.4234 91.3849 84.3749 91.6288 84.375 91.875V97.5H88.125V93.75H106.875V97.5H110.625Z" fill="#9793A4"/>
<path d="M63.5419 15.2081L60 3.75L56.4581 15.2081H45L54.27 22.2919L50.73 33.75L60 26.6681L69.27 33.75L65.73 22.2919L75 15.2081H63.5419Z" fill="#9793A4"/>
</svg>
