<svg width="121" height="121" viewBox="0 0 121 121" fill="none" xmlns="http://www.w3.org/2000/svg">
<g clip-path="url(#clip0_146_1767)">
<path d="M104.312 113.526H13.3258C6.1809 113.526 0.367188 107.559 0.367188 100.224V20.9542C0.367188 13.6201 6.1809 7.65234 13.3258 7.65234H104.312C111.457 7.65234 117.27 13.6201 117.27 20.9542V100.224C117.27 107.559 111.457 113.526 104.312 113.526ZM13.3258 11.6146C8.30908 11.6146 4.2272 15.8046 4.2272 20.9542V100.224C4.2272 105.373 8.30908 109.563 13.3258 109.563H104.312C109.329 109.563 113.41 105.373 113.41 100.224V20.9542C113.41 15.8046 109.329 11.6146 104.312 11.6146H13.3258Z" fill="#9A92B9"/>
<path d="M115.34 39.3756H2.29719C1.23095 39.3756 0.367188 38.4889 0.367188 37.3945C0.367188 36.3011 1.23095 35.4133 2.29719 35.4133H115.34C116.407 35.4133 117.27 36.3011 117.27 37.3945C117.27 38.4889 116.407 39.3756 115.34 39.3756Z" fill="#9A92B9"/>
<path d="M33.3421 29.8955C29.9754 29.8955 27.2344 27.0819 27.2344 23.626C27.2344 20.1689 29.9754 17.3564 33.3421 17.3564C36.7099 17.3564 39.4498 20.1689 39.4498 23.626C39.4498 27.0819 36.7099 29.8955 33.3421 29.8955ZM33.3421 21.3187C32.1035 21.3187 31.0944 22.3535 31.0944 23.626C31.0944 24.8985 32.1035 25.9332 33.3421 25.9332C34.5818 25.9332 35.5898 24.8985 35.5898 23.626C35.5898 22.3535 34.5818 21.3187 33.3421 21.3187Z" fill="#9A92B9"/>
<path d="M14.5765 29.835C11.2087 29.835 8.46875 27.0225 8.46875 23.5654C8.46875 20.1084 11.2087 17.2959 14.5765 17.2959C17.9443 17.2959 20.6842 20.1084 20.6842 23.5654C20.6842 27.0225 17.9443 29.835 14.5765 29.835ZM14.5765 21.2582C13.3379 21.2582 12.3288 22.2941 12.3288 23.5654C12.3288 24.8379 13.3379 25.8727 14.5765 25.8727C15.8161 25.8727 16.8242 24.8379 16.8242 23.5654C16.8242 22.2941 15.8161 21.2582 14.5765 21.2582Z" fill="#9A92B9"/>
<path d="M52.1106 29.9556C48.7438 29.9556 46.0039 27.1431 46.0039 23.686C46.0039 20.2301 48.7438 17.4176 52.1106 17.4176C55.4784 17.4176 58.2183 20.2301 58.2183 23.686C58.2183 27.1431 55.4784 29.9556 52.1106 29.9556ZM52.1106 21.3788C50.872 21.3788 49.8639 22.4135 49.8639 23.686C49.8639 24.9585 50.872 25.9933 52.1106 25.9933C53.3502 25.9933 54.3583 24.9585 54.3583 23.686C54.3583 22.4135 53.3502 21.3788 52.1106 21.3788Z" fill="#9A92B9"/>
<path d="M45.7496 64.1838L41.4596 79.5398H37.8296L34.9476 68.6058L31.9336 79.5398L28.3256 79.5618L24.1896 64.1838H27.4896L30.1956 76.1078L33.3196 64.1838H36.7516L39.6996 76.0418L42.4276 64.1838H45.7496ZM68.2867 64.1838L63.9967 79.5398H60.3667L57.4847 68.6058L54.4707 79.5398L50.8627 79.5618L46.7267 64.1838H50.0267L52.7327 76.1078L55.8567 64.1838H59.2887L62.2367 76.0418L64.9647 64.1838H68.2867ZM90.8238 64.1838L86.5338 79.5398H82.9038L80.0218 68.6058L77.0078 79.5398L73.3998 79.5618L69.2638 64.1838H72.5638L75.2698 76.1078L78.3938 64.1838H81.8258L84.7738 76.0418L87.5018 64.1838H90.8238ZM94.1989 79.6938C93.6416 79.6938 93.1796 79.5251 92.8129 79.1878C92.4609 78.8358 92.2849 78.4031 92.2849 77.8898C92.2849 77.3765 92.4609 76.9511 92.8129 76.6138C93.1796 76.2618 93.6416 76.0858 94.1989 76.0858C94.7416 76.0858 95.1889 76.2618 95.5409 76.6138C95.8929 76.9511 96.0689 77.3765 96.0689 77.8898C96.0689 78.4031 95.8929 78.8358 95.5409 79.1878C95.1889 79.5251 94.7416 79.6938 94.1989 79.6938Z" fill="#8A8AA7"/>
<path d="M119.366 104.606C119.366 112.857 112.857 119.5 104.882 119.5C96.9076 119.5 90.3984 112.857 90.3984 104.606C90.3984 96.3554 96.9076 89.7119 104.882 89.7119C112.857 89.7119 119.366 96.3554 119.366 104.606Z" fill="white" stroke="#8A8AA7" stroke-width="2"/>
<g clip-path="url(#clip1_146_1767)">
<path d="M109.674 100.796C109.35 100.464 108.825 100.464 108.501 100.796L103.225 106.212L100.88 103.805C100.556 103.473 100.032 103.473 99.7077 103.805C99.3839 104.138 99.3839 104.676 99.7077 105.009L102.639 108.018C102.801 108.184 103.013 108.267 103.225 108.267C103.437 108.267 103.65 108.184 103.811 108.018L109.674 102C109.997 101.668 109.997 101.129 109.674 100.796Z" fill="#9A92B9"/>
</g>
</g>
<defs>
<clipPath id="clip0_146_1767">
<rect width="120" height="120" fill="white" transform="translate(0.367188 0.5)"/>
</clipPath>
<clipPath id="clip1_146_1767">
<rect width="10.4516" height="10.7285" fill="white" transform="translate(99.4648 99.0431)"/>
</clipPath>
</defs>
</svg>
